<svg width="134" height="56" viewBox="0 0 134 56" fill="none" xmlns="http://www.w3.org/2000/svg">
<path d="M0 12.5C0 5.87258 5.37258 0.5 12 0.5H122C128.627 0.5 134 5.87258 134 12.5V43.5C134 50.1274 128.627 55.5 122 55.5H12C5.37258 55.5 0 50.1274 0 43.5V12.5Z" fill="white"/>
<path d="M16.6704 4.5H38.3296C42.7358 4.5 44.3319 4.96021 45.9377 5.82188C47.5318 6.6648 48.8352 7.96818 49.6781 9.56229C50.5398 11.1681 51 12.7642 51 17.1704V38.8296C51 43.2358 50.5398 44.8319 49.6781 46.4377C48.8352 48.0318 47.5318 49.3352 45.9377 50.1781C44.3319 51.0398 42.7358 51.5 38.3296 51.5H16.6704C12.2642 51.5 10.6681 51.0398 9.06229 50.1781C7.46818 49.3352 6.1648 48.0318 5.32187 46.4377C4.46021 44.8417 4 43.2358 4 38.8296V17.1704C4 12.7642 4.46021 11.1681 5.32187 9.56229C6.1648 7.96818 7.46818 6.6648 9.06229 5.82188C10.6681 4.96021 12.2642 4.5 16.6704 4.5Z" fill="#FAED0B"/>
<path d="M39.1561 14.1371C39.7449 14.1397 40.3086 14.3754 40.724 14.7926C41.1394 15.2098 41.3726 15.7746 41.3726 16.3634V21.8852H46V16.3634C46 12.572 42.928 9.5 39.1561 9.5H33.6149V14.1371H39.1561Z" fill="#3A4565"/>
<path d="M41.3726 39.6658C41.3726 40.2537 41.1391 40.8174 40.7234 41.2331C40.3077 41.6488 39.744 41.8823 39.1561 41.8823H33.6149V46.5H39.1561C40.9688 46.4974 42.7066 45.7769 43.9892 44.4961C45.2719 43.2152 45.9949 41.4784 46 39.6658V34.1246H41.3726V39.6658Z" fill="#3A4565"/>
<path d="M13.6274 16.3634C13.6261 16.071 13.6824 15.7813 13.7931 15.5107C13.9038 15.2401 14.0667 14.994 14.2725 14.7863C14.4784 14.5787 14.7231 14.4137 14.9927 14.3006C15.2623 14.1875 15.5515 14.1287 15.8439 14.1274H21.3851V9.5H15.8439C14.027 9.50515 12.2863 10.2305 11.0033 11.5171C9.72042 12.8037 8.99999 14.5464 9 16.3634V21.8852H13.6274V16.3634Z" fill="#3A4565"/>
<path d="M15.8439 41.8823C15.2568 41.8797 14.6945 41.6454 14.2794 41.2303C13.8643 40.8152 13.63 40.2529 13.6274 39.6658V34.1246H9V39.6658C9.00514 41.4784 9.72815 43.2152 11.0108 44.4961C12.2934 45.7769 14.0312 46.4974 15.8439 46.5H21.3851V41.8823H15.8439Z" fill="#3A4565"/>
<path d="M24.8363 39.102L14.9496 29.2153L18.216 25.9392L24.8266 32.5498L36.7839 20.5924L40.0503 23.8685L24.8363 39.102Z" fill="#3A4565"/>
<path d="M70.7849 35.456C71.4757 36.2469 71.8316 37.2043 71.8316 38.3281C71.8316 39.2439 71.5804 40.0972 71.078 40.8776C70.5242 41.7153 69.7393 42.3765 68.8173 42.782C67.8021 43.2607 66.5461 43.5 65.0495 43.5C63.9523 43.5002 62.8593 43.3674 61.7945 43.1046C60.8083 42.8713 59.8652 42.485 59 41.9599L60.6013 38.6611C61.8857 39.491 63.3817 39.9387 64.9134 39.9515C65.667 39.9515 66.274 39.8058 66.7136 39.5353C67.1532 39.2439 67.3834 38.8484 67.3834 38.3281C67.3834 37.3291 66.588 36.8192 65.0076 36.8192H63.1551V34.0408L65.9391 31.0438H59.8059V27.6514H71.0466V30.4091L67.823 33.8639C69.1104 34.1345 70.1047 34.6652 70.7954 35.456" fill="#3A4565"/>
<path d="M89.1425 27.6514V43.1566H84.7153V37.1106H78.6763V43.1462H74.2491V27.6618H78.6763V33.4893H84.7153V27.6618L89.1425 27.6514Z" fill="#3A4565"/>
<path d="M103.272 28.1821C104.384 28.7541 105.296 29.6463 105.889 30.742C106.517 31.8555 106.82 33.1979 106.82 34.7692V43.1566H102.393V39.7225H96.2808V43.1566H91.9164V34.7588C91.9164 33.1979 92.2304 31.8451 92.8479 30.7316C93.4411 29.6359 94.353 28.7437 95.4645 28.1717C96.675 27.5693 98.015 27.2693 99.3684 27.2976C100.844 27.2976 102.142 27.5889 103.272 28.1717V28.1821ZM102.393 36.3197V34.3842C102.393 33.2499 102.111 32.3966 101.556 31.8138C101.269 31.5237 100.925 31.2968 100.544 31.148C100.164 30.9991 99.7559 30.9317 99.3475 30.9501C98.4055 30.9501 97.6624 31.2415 97.1077 31.8138C96.5634 32.3966 96.2808 33.2499 96.2808 34.3842V36.3197H102.393Z" fill="#3A4565"/>
<path d="M113.979 35.7994V43.1566H109.583V27.6514H113.979V34.9982H114.084L119.568 27.6514H124.833L118.825 35.1439L125 43.1566H119.285L113.979 35.7994Z" fill="#3A4565"/>
<path d="M66.9752 14.9039V22.8334H64.2854V20.2943C63.7516 20.4504 63.2597 20.5336 62.8201 20.5336C61.6374 20.5336 60.7268 20.2631 60.0989 19.7011C59.4918 19.16 59.1778 18.3483 59.1778 17.2973V14.9039H61.8572V17.0059C61.8572 17.4846 61.9619 17.8384 62.1816 18.0674C62.391 18.3067 62.7259 18.4212 63.1655 18.4212C63.626 18.4212 64.0028 18.3587 64.2854 18.2339V14.9039H66.9752Z" fill="#3A4565"/>
<path d="M75.2854 20.8146V22.8334H68.7022V14.9039H75.1389V16.9227H71.3292V17.8592H74.6784V19.774H71.3292V20.8146H75.2854Z" fill="#3A4565"/>
<path d="M78.6975 22.3028C78.028 21.9686 77.4667 21.4536 77.078 20.8168C76.6892 20.18 76.4888 19.4471 76.4996 18.7023C76.4893 17.9562 76.6898 17.2222 77.0784 16.5838C77.4669 15.9455 78.0279 15.4284 78.6975 15.0914C79.3883 14.7376 80.1628 14.5711 81.0106 14.5711C81.7955 14.5711 82.4968 14.6959 83.1143 14.9665C83.7422 15.2371 84.2446 15.6325 84.6423 16.1424L82.9259 17.6513C82.724 17.3674 82.4577 17.1346 82.1486 16.9719C81.8395 16.8092 81.4963 16.7211 81.1466 16.7147C80.5815 16.7147 80.1209 16.902 79.7755 17.2559C79.4302 17.6201 79.2522 18.0883 79.2522 18.7023C79.2522 19.2955 79.4302 19.7846 79.7755 20.1384C80.1209 20.4922 80.5815 20.6691 81.1466 20.6691C81.8269 20.6691 82.4235 20.3569 82.9259 19.7533L84.6423 21.2518C84.2446 21.7617 83.7318 22.1572 83.1143 22.4277C82.4968 22.6983 81.7955 22.8336 81.021 22.8336C80.1523 22.8336 79.3883 22.6567 78.6975 22.3132" fill="#3A4565"/>
<path d="M92.785 16.9851H90.4615V22.8334H87.8345V16.9851H85.511V14.9039H92.785V16.9851Z" fill="#3A4565"/>
<path d="M101.974 14.9039V22.8334H99.2425V19.9197H96.7306V22.8334H93.9989V14.9039H96.7202V17.7135H99.2321V14.9039H101.974Z" fill="#3A4565"/>
<path d="M111.373 19.9613C111.373 20.8874 111.059 21.595 110.431 22.0945C109.803 22.5836 108.966 22.823 107.877 22.823H103.869V14.9143H106.548V17.3389H108.223C109.227 17.3389 110.002 17.5575 110.557 18.0049C111.101 18.442 111.373 19.0976 111.373 19.9613ZM108.631 20.0029C108.631 19.4722 108.317 19.212 107.689 19.212H106.548V20.9603H107.699C107.947 20.9678 108.188 20.8781 108.369 20.7105C108.46 20.617 108.53 20.5059 108.575 20.384C108.62 20.2622 108.639 20.1324 108.631 20.0029ZM112.106 14.9039H114.785V22.8334H112.106V14.9039Z" fill="#3A4565"/>
<path d="M116.522 14.9038H119.181V19.0247L121.944 14.9038H124.487V22.8333H121.829V18.7125L119.076 22.8333H116.522V14.9038ZM118.584 13.9673C118.186 13.6343 117.998 13.1452 117.998 12.5H119.798C119.798 12.7497 119.851 12.9371 119.955 13.0515C120.06 13.1556 120.238 13.2284 120.499 13.2284C120.761 13.2284 120.939 13.166 121.054 13.0515C121.159 12.9475 121.222 12.7497 121.222 12.5H123.022C123.022 13.1452 122.812 13.6343 122.425 13.9569C122.027 14.2795 121.379 14.4459 120.499 14.4459C119.61 14.4459 118.971 14.2795 118.584 13.9569V13.9673Z" fill="#3A4565"/>
</svg>
