<svg width="32" height="32" viewBox="0 0 32 32" fill="none" xmlns="http://www.w3.org/2000/svg">
<path d="M18.2159 0.0419807C23.7033 0.773956 28.3417 4.19069 30.6344 9.18668C31.2693 10.5704 31.7254 12.1497 31.9345 13.6939L32 14.1726L31.9924 16.0628L31.9849 17.9529L31.9143 18.3915C31.6901 19.7778 31.3802 20.9109 30.8889 22.1266C30.6924 22.618 30.2313 23.5605 29.9592 24.0318C28.1704 27.1327 25.4342 29.5066 22.106 30.8452C18.9743 32.1036 15.3714 32.3442 12.0431 31.5145C10.3022 31.0808 8.61916 30.3413 7.12511 29.3562C3.19723 26.7617 0.632391 22.5603 0.103298 17.8526C0.0251942 17.1582 0 16.6945 0 15.9474C0 15.2004 0.0251942 14.7367 0.103298 14.0423C0.430832 11.1319 1.55956 8.34441 3.3484 6.0457C4.07149 5.11568 5.05913 4.11298 5.95859 3.39604C7.92378 1.82931 10.2115 0.756409 12.6856 0.242521C12.8922 0.199907 13.2777 0.129717 13.5422 0.0845947L14.0209 0.00688553L15.9484 0.00187111C17.6893 -0.00314331 17.9085 -0.000637054 18.2159 0.0419807ZM16.7546 4.90512V8.43966H16.8302C16.9763 8.43966 17.6792 8.36195 18.0899 8.29928C19.1153 8.14387 20.3398 7.83804 21.3073 7.49712L21.5618 7.40687L21.466 7.17876C20.8689 5.7499 19.972 4.10295 18.9969 2.63899C18.677 2.1577 18.2688 1.5686 18.2184 1.51596C18.2108 1.50593 18.032 1.47585 17.8254 1.44828C17.3567 1.38561 17.3038 1.3806 16.999 1.37558L16.7546 1.37057V4.90512ZM14.6634 1.39564C14.5324 1.40817 14.3006 1.43825 14.1494 1.46081L13.8773 1.50343L13.7262 1.70648C13.2349 2.36826 12.3757 3.71941 11.8668 4.62937C11.3478 5.55437 10.4911 7.35925 10.5466 7.40938C10.5818 7.44448 11.5342 7.7478 11.9928 7.87313C13.0157 8.15138 14.2023 8.36446 15.0968 8.42964L15.3437 8.44718V4.90762V1.37057H15.122C15.001 1.37057 14.7944 1.3831 14.6634 1.39564ZM20.1307 1.95966C20.1307 1.96718 20.2315 2.11759 20.3549 2.29306C20.9697 3.16792 21.6273 4.3085 22.1362 5.38642C22.3579 5.85518 22.7762 6.82029 22.7762 6.8604C22.7762 6.87544 22.7837 6.88547 22.7913 6.88547C22.7988 6.88547 23.018 6.79021 23.275 6.67239C24.0913 6.30139 24.9807 5.80505 25.6585 5.34631L25.9558 5.14326L25.8348 5.03296C24.4012 3.73445 22.5696 2.68161 20.7732 2.12511C20.1987 1.94713 20.1307 1.92958 20.1307 1.95966ZM11.5216 2.05742C9.60932 2.62646 7.84064 3.62165 6.28108 5.00288C6.2055 5.07056 6.15007 5.13825 6.15763 5.15329C6.18534 5.1959 6.95126 5.69475 7.31911 5.90783C7.84064 6.20864 9.25659 6.90803 9.28683 6.88045C9.28935 6.87544 9.36997 6.69244 9.46067 6.47185C10.1258 4.88506 11.0228 3.25065 11.8643 2.09001C11.9348 1.99475 11.9575 1.94713 11.9348 1.94713C11.9121 1.94713 11.7282 1.99726 11.5216 2.05742ZM26.7066 6.29888C26.0313 6.76514 24.8094 7.42442 23.6681 7.9358L23.2624 8.1188L23.343 8.33689C23.4841 8.7129 23.8016 9.68804 23.9477 10.1944C24.4466 11.914 24.7439 13.4858 24.8547 14.9999L24.8724 15.233H27.7295H30.5891L30.5765 15.1127C30.5689 15.0475 30.5563 14.8821 30.5488 14.7442C30.5135 14.1275 30.3749 13.195 30.2187 12.5006C29.7047 10.2345 28.6642 8.14387 27.1878 6.41169C27.0517 6.25125 26.9409 6.14095 26.9232 6.15098C26.9081 6.16101 26.8099 6.22618 26.7066 6.29888ZM5.05409 6.22869C4.88025 6.41921 4.54515 6.83032 4.32596 7.1211C3.27281 8.5274 2.4439 10.2496 1.99291 11.9767C1.74096 12.9368 1.56964 14.0022 1.52177 14.9121L1.50413 15.233H4.35367H7.20573L7.21581 15.1754C7.22337 15.1453 7.23597 14.9899 7.24352 14.8319C7.33171 13.2502 7.85828 10.8737 8.59145 8.76554C8.70483 8.44217 8.79805 8.16141 8.80057 8.14387C8.80309 8.12381 8.67207 8.05112 8.46548 7.96087C7.32163 7.4545 6.00898 6.74509 5.32871 6.26379C5.23045 6.1936 5.14983 6.13594 5.14479 6.13594C5.14227 6.13343 5.10196 6.17605 5.05409 6.22869ZM21.6449 8.72544C20.1307 9.33709 18.3368 9.79081 17.0821 9.88106C16.9637 9.88858 16.8428 9.90111 16.81 9.90863L16.7546 9.91866V12.5758V15.233H20.1055H23.4589L23.4438 15.05C23.3985 14.4384 23.3733 14.1726 23.3279 13.8042C23.139 12.2324 22.688 10.4476 22.0657 8.79563C22.0203 8.67781 21.975 8.59258 21.9598 8.6001C21.9447 8.60511 21.8036 8.66277 21.6449 8.72544ZM9.95449 8.95856C9.25659 10.8712 8.83836 12.6836 8.67963 14.4935C8.65948 14.7266 8.64184 14.9899 8.64184 15.0751V15.233H11.9928H15.3437V12.5758V9.92117L15.2605 9.90863C15.2177 9.90362 15.001 9.87855 14.7843 9.8585C13.5246 9.73316 11.9222 9.31954 10.5441 8.76805C10.3072 8.67279 10.1107 8.59508 10.1031 8.59258C10.0956 8.59007 10.0301 8.75552 9.95449 8.95856ZM24.8573 16.9677C24.754 18.8528 24.2551 21.0888 23.4463 23.2973C23.3556 23.548 23.2801 23.7636 23.2801 23.7736C23.2801 23.7861 23.4413 23.8663 23.6403 23.9541C24.7867 24.4655 26.0364 25.1423 26.7393 25.6286C26.8476 25.7013 26.9459 25.7564 26.9585 25.7489C26.9711 25.7414 27.1021 25.591 27.2482 25.4155C28.9817 23.3524 30.0802 20.8507 30.4455 18.1359C30.5009 17.7348 30.5236 17.4891 30.574 16.8173L30.584 16.6619H27.7295H24.8749L24.8573 16.9677ZM16.7546 19.3266V21.9938L17.0872 22.0214C18.4401 22.1417 20.035 22.5428 21.5542 23.1419C21.781 23.2321 21.9724 23.3048 21.98 23.3048C22.0128 23.3048 22.4083 22.1367 22.6149 21.4247C23.0861 19.8054 23.3103 18.577 23.4438 16.8549L23.4589 16.6619H20.1055H16.7546V19.3266ZM8.6494 16.9677C8.72498 18.4567 9.11298 20.3869 9.69246 22.1642C9.82852 22.5779 10.0754 23.2823 10.0905 23.2998C10.0956 23.3048 10.3047 23.2296 10.5516 23.1319C12.0683 22.5377 13.5095 22.1743 14.9028 22.0314L15.3311 21.9888L15.3386 19.3241L15.3437 16.6619H11.9902H8.63428L8.6494 16.9677ZM1.51169 16.8048C1.51169 16.885 1.52933 17.1482 1.54948 17.3888C1.81403 20.407 2.9352 23.1519 4.83237 25.4155C4.9911 25.606 5.12716 25.7615 5.13471 25.7615C5.13975 25.7615 5.27832 25.6737 5.43957 25.5659C6.18282 25.0646 7.19061 24.5231 8.3269 24.0067C8.57633 23.8939 8.78797 23.7936 8.79553 23.7861C8.8056 23.7761 8.75773 23.6207 8.68971 23.4427C7.91119 21.3821 7.32919 18.8779 7.24352 17.2008C7.23597 17.0479 7.22337 16.8649 7.21581 16.7922L7.20321 16.6619H4.35619H1.51169V16.8048ZM16.7546 27.0048V30.5519L16.9234 30.5394C17.0191 30.5318 17.1955 30.5193 17.3215 30.5118C17.5407 30.4967 18.0043 30.4391 18.1479 30.409C18.1983 30.399 18.2688 30.3213 18.4401 30.0881C19.5462 28.5715 20.6018 26.6614 21.3879 24.7638C21.5013 24.4905 21.5089 24.4554 21.4711 24.4354C21.3375 24.3677 20.2945 24.0568 19.7276 23.919C18.8483 23.7059 17.5079 23.4928 16.81 23.4577L16.7546 23.4552V27.0048ZM14.5248 23.5329C13.4062 23.6558 12.1767 23.924 11.0152 24.3C10.7481 24.3852 10.5818 24.4529 10.5818 24.473C10.5818 24.4905 10.6826 24.7412 10.8061 25.027C11.6123 26.907 12.4992 28.4913 13.6002 30.028L13.8622 30.394L14.0184 30.4215C14.2754 30.4692 14.7869 30.5193 15.0665 30.5293L15.3311 30.5369L15.3386 27.0274C15.3412 25.0972 15.3386 23.5029 15.3311 23.4853C15.3185 23.4502 15.2706 23.4527 14.5248 23.5329ZM22.5267 25.5183C21.9372 27.0123 21.0931 28.564 20.2063 29.7823C20.1257 29.8901 20.1105 29.9252 20.1458 29.9152C20.1735 29.9077 20.2668 29.8826 20.3575 29.86C21.9674 29.4614 23.6807 28.6016 25.1294 27.461C25.409 27.2404 25.9482 26.7842 25.9482 26.7642C25.9507 26.7316 25.1394 26.2001 24.6532 25.9169C24.1241 25.6085 22.8543 24.9818 22.7636 24.9844C22.751 24.9844 22.6426 25.225 22.5267 25.5183ZM8.97441 25.1272C8.30927 25.4255 7.56602 25.8191 6.96638 26.1951C6.60861 26.4182 6.14755 26.7391 6.14755 26.7667C6.14755 26.7842 6.465 27.0625 6.80261 27.3432C7.93134 28.2783 9.41784 29.108 10.8136 29.5843C11.2016 29.7171 11.9424 29.9302 11.9575 29.9152C11.9625 29.9102 11.9247 29.8525 11.8769 29.7823C10.922 28.4688 10.0679 26.872 9.43548 25.2275C9.38509 25.0947 9.33218 24.9844 9.31958 24.9844C9.30446 24.9844 9.15078 25.0495 8.97441 25.1272Z" fill="#282882"/>
</svg>
