<svg width="57" height="56" viewBox="0 0 57 56" fill="none" xmlns="http://www.w3.org/2000/svg">
<path d="M39.8449 6.94222C39.4567 6.94222 34.4102 11.1626 30.373 16.9574C30.373 16.9574 34.3157 23.135 32.3805 29.8809C32.3805 33.1172 27.4227 38.7808 27.4227 38.7808C30.4062 43.2745 34.6764 46.1719 41.0206 46.1719C49.1949 46.1719 56.4375 39.4478 56.4375 30.198C56.4486 18.1164 41.6861 6.94222 39.8449 6.94222ZM50.3483 24.108C49.8381 24.5453 49.0728 24.4906 48.6292 23.9877L43.8045 18.5209C43.3609 18.0179 43.4163 17.2635 43.9265 16.8262C44.4367 16.3888 45.202 16.4435 45.6456 16.9465L50.4704 22.4133C50.9029 22.9162 50.8474 23.6706 50.3483 24.108Z" fill="#22478B"/>
<path d="M16.9081 5.58623C20.4795 7.40121 32.4802 16.9353 32.4802 26.4256C32.4802 33.937 20.6347 44.6082 17.7621 46.1061C14.5234 44.7285 2.65576 34.1776 2.65576 26.8193C2.65576 18.1271 13.5807 8.01349 16.9081 5.58623ZM16.6419 3.16992C15.9875 3.16992 0.4375 15.5139 0.4375 26.8083C0.4375 36.0581 15.3331 48.3693 17.8286 48.3693C19.936 48.3693 34.6985 35.6754 34.6985 26.4147C34.6985 14.344 18.4942 3.16992 16.6419 3.16992Z" fill="#22478B"/>
<path d="M17.3074 10.0472C17.7399 10.0472 18.0949 10.3971 18.0949 10.8235V52.054C18.0949 52.4804 17.7399 52.8303 17.3074 52.8303C16.8748 52.8303 16.5199 52.4804 16.5199 52.054V10.8235C16.5199 10.3971 16.8637 10.0472 17.3074 10.0472Z" fill="#22478B"/>
<path d="M10.6863 16.1265C10.9303 15.7657 11.4183 15.6672 11.7843 15.9078L17.3411 19.7673C17.7071 20.0079 17.8069 20.4889 17.5628 20.8497C17.3188 21.2106 16.8308 21.309 16.4648 21.0684L10.9081 17.2089C10.5532 16.9683 10.4534 16.4873 10.6863 16.1265Z" fill="#22478B"/>
<path d="M10.6191 32.9422C10.8631 32.5814 11.3512 32.483 11.7172 32.7235L17.2739 36.5831C17.6399 36.8236 17.7397 37.3047 17.4957 37.6655C17.2517 38.0263 16.7637 38.1247 16.3977 37.8842L10.841 34.0246C10.4861 33.7841 10.3862 33.303 10.6191 32.9422Z" fill="#22478B"/>
<path d="M7.52519 23.135C7.7692 22.7742 8.2572 22.6758 8.62321 22.9164L17.2744 28.4706C17.6404 28.7112 17.7402 29.1923 17.4962 29.5531C17.2522 29.9139 16.7642 30.0123 16.3982 29.7717L7.74703 24.2175C7.39211 23.9769 7.28118 23.4958 7.52519 23.135Z" fill="#22478B"/>
<path d="M23.7066 16.0501C23.4626 15.6893 22.9746 15.5909 22.6086 15.8314L17.0518 19.691C16.6858 19.9315 16.586 20.4126 16.83 20.7734C17.074 21.1342 17.562 21.2326 17.928 20.9921L23.4847 17.1325C23.8508 16.892 23.9506 16.4109 23.7066 16.0501Z" fill="#22478B"/>
<path d="M23.7737 32.8658C23.5297 32.505 23.0417 32.4066 22.6757 32.6472L17.119 36.5067C16.753 36.7472 16.6531 37.2283 16.8971 37.5891C17.1411 37.9499 17.6291 38.0483 17.9952 37.8078L23.5519 33.9483C23.9179 33.7077 24.0177 33.2266 23.7737 32.8658Z" fill="#22478B"/>
<path d="M26.879 23.0582C26.635 22.6974 26.147 22.599 25.781 22.8395L17.1298 28.3938C16.7638 28.6343 16.664 29.1154 16.908 29.4762C17.152 29.837 17.64 29.9354 18.006 29.6948L26.6572 24.1406C27.0121 23.9001 27.1119 23.419 26.879 23.0582Z" fill="#22478B"/>
</svg>
