<svg width="24" height="24" viewBox="0 0 24 24" fill="none" xmlns="http://www.w3.org/2000/svg">
<g clip-path="url(#clip0_4653_291)">
<path d="M22.2314 1.7622C19.8899 -0.579263 16.0539 -0.579263 13.7124 1.7622L9.11246 6.3621C10.69 5.91374 12.4005 6.02998 13.8951 6.72744L16.2863 4.33615C17.2163 3.40621 18.7274 3.40621 19.6574 4.33615C20.5873 5.2661 20.5873 6.77726 19.6574 7.7072L16.6517 10.7129L14.6755 12.689C13.7456 13.619 12.2344 13.619 11.3044 12.689L8.73047 15.263C9.32829 15.8609 10.0257 16.3092 10.7564 16.5915C12.7326 17.372 15.0243 17.0731 16.7513 15.7113C16.9174 15.5785 17.1 15.4291 17.2495 15.2629L20.3548 12.1576L22.2313 10.2811C24.5894 7.93969 24.5894 4.12028 22.2314 1.7622Z" fill="#22478B"/>
<path d="M9.99269 17.372L7.70104 19.6636C6.7711 20.5936 5.25994 20.5936 4.33 19.6636C3.40005 18.7337 3.40005 17.2226 4.33 16.2926L9.31184 11.3108C10.2418 10.3808 11.7529 10.3808 12.6829 11.3108L15.2569 8.73683C14.6591 8.13901 13.9616 7.69064 13.2309 7.40834C11.1552 6.57803 8.71407 6.95997 6.97043 8.52095C6.8874 8.58738 6.80437 8.67041 6.73794 8.73683L1.7561 13.7186C-0.585366 16.0601 -0.585366 19.8961 1.7561 22.2376C4.09757 24.5791 7.93358 24.5791 10.2751 22.2376L14.7754 17.6875C12.4836 18.2188 11.9522 18.1525 9.99269 17.372Z" fill="#22478B"/>
</g>
<defs>
<clipPath id="clip0_4653_291">
<rect width="24" height="24" fill="white"/>
</clipPath>
</defs>
</svg>
