<svg width="164" height="160" viewBox="0 0 164 160" fill="none" xmlns="http://www.w3.org/2000/svg">
<rect width="164" height="160" fill="white"/>
<g clip-path="url(#clip0_4653_529)">
<path fill-rule="evenodd" clip-rule="evenodd" d="M30.2005 127.44H27V119.106H30.1045C31.5397 119.106 32.5389 119.941 32.5389 121.331C32.5389 122.216 32.0208 122.894 31.3257 123.157C32.1098 123.448 32.6799 124.135 32.6799 125.138C32.6799 126.66 31.6668 127.44 30.2005 127.44ZM39.5851 127.432L38.925 125.552H35.3094L34.6473 127.433H33.7071L36.7516 119.106H37.4757L40.5322 127.432H39.5841H39.5851ZM41.8754 127.44H42.7566V119.106H41.8754V127.44ZM50.3058 127.44L47.7774 123.02L46.0301 125.122V127.44H45.154V119.106H46.0301V123.894L49.8867 119.106H50.9909L48.3675 122.325L51.353 127.44H50.3058ZM57.548 127.432L56.8939 125.552H53.2643L52.5822 127.433H51.649L54.6995 119.106H55.4577L58.4802 127.432H57.548ZM59.8254 127.44V119.106H60.7055V126.66H64.9432V127.44H59.8254ZM68.6208 127.514C67.3706 127.514 66.5465 127.198 65.7863 126.403L66.3964 125.809C67.0646 126.493 67.7167 126.711 68.6478 126.711C69.854 126.711 70.5931 126.137 70.5931 125.186C70.5931 124.74 70.4711 124.366 70.2031 124.128C69.945 123.893 69.712 123.823 69.1179 123.726L68.1707 123.577C67.5076 123.464 66.9925 123.269 66.6305 122.957C66.2104 122.567 66.0124 122.067 66.0124 121.377C66.0124 119.976 67.0085 119.033 68.6628 119.033C69.712 119.033 70.4171 119.313 71.1262 119.946L70.5601 120.519C70.039 120.062 69.495 119.825 68.6208 119.825C67.5146 119.825 66.8765 120.441 66.8765 121.342C66.8765 121.759 66.9925 122.098 67.2586 122.31C67.5076 122.54 67.9237 122.704 68.3508 122.781L69.2629 122.91C70.058 123.039 70.4331 123.192 70.7882 123.5C71.2282 123.89 71.4803 124.471 71.4803 125.15C71.4803 126.617 70.3391 127.514 68.6208 127.514ZM73.3276 127.44V119.106H78.4784V119.91H74.2207V122.84H77.8533V123.645H74.2207V126.66H78.4794V127.44H73.3276ZM85.1405 127.432L84.4804 125.552H80.8698L80.2017 127.433H79.2495L82.3081 119.106H83.0472L86.0807 127.432H85.1405ZM92.9018 127.514C92.0966 127.514 91.3415 127.219 90.7804 126.659C90.0213 125.86 90.0213 125.033 90.0213 123.28C90.0213 121.51 90.0213 120.702 90.7804 119.91C91.0582 119.63 91.3889 119.407 91.7532 119.256C92.1174 119.106 92.5079 119.029 92.9018 119.032C94.396 119.032 95.5012 119.946 95.7743 121.522H94.8631C94.6491 120.488 93.938 119.852 92.9028 119.852C92.3667 119.852 91.8446 120.053 91.4745 120.433C90.9605 120.967 90.8965 121.536 90.8965 123.28C90.8965 125.009 90.9605 125.594 91.4745 126.129C91.8446 126.503 92.3667 126.711 92.9018 126.711C93.938 126.711 94.6721 126.051 94.8901 125.025H95.7743C95.5132 126.609 94.372 127.514 92.9018 127.514ZM101.261 126.85C100.868 127.257 100.324 127.514 99.6179 127.514C98.9248 127.514 98.3667 127.257 97.9796 126.85C97.3955 126.266 97.2795 125.454 97.2795 124.568C97.2795 123.68 97.3955 122.864 97.9796 122.259C98.3667 121.877 98.9248 121.631 99.6179 121.631C100.324 121.631 100.868 121.876 101.261 122.259C101.849 122.864 101.952 123.68 101.952 124.568C101.952 125.453 101.849 126.266 101.262 126.851L101.261 126.85ZM111.098 127.44V123.893C111.098 122.875 110.543 122.373 109.692 122.373C108.855 122.373 108.267 122.886 108.267 123.803V127.44H107.42V123.893C107.42 122.875 106.882 122.373 106.02 122.373C105.162 122.373 104.6 122.886 104.6 123.893V127.44H103.752V121.693H104.6V122.31C104.997 121.849 105.56 121.631 106.196 121.631C106.983 121.631 107.614 121.938 107.952 122.566C108.404 121.938 109.042 121.631 109.853 121.631C110.473 121.631 110.984 121.812 111.327 122.161C111.727 122.551 111.945 123.105 111.945 123.745V127.44H111.098ZM117.829 127.003C117.529 127.303 117.015 127.521 116.431 127.521C115.813 127.521 115.283 127.354 114.817 126.765V130H113.985V121.693H114.817V122.373C115.283 121.751 115.813 121.631 116.431 121.631C117.015 121.631 117.529 121.812 117.829 122.138C118.411 122.704 118.534 123.677 118.534 124.568C118.534 125.462 118.411 126.41 117.829 127.003ZM123.563 127.44V126.898C123.101 127.354 122.683 127.514 121.913 127.514C121.132 127.514 120.646 127.353 120.3 126.991C120.019 126.707 119.87 126.282 119.87 125.817C119.87 124.818 120.563 124.158 121.847 124.158H123.563V123.601C123.563 122.754 123.154 122.338 122.101 122.338C121.377 122.338 120.995 122.532 120.646 122.997L120.086 122.478C120.593 121.804 121.179 121.631 122.108 121.631C123.646 121.631 124.414 122.27 124.414 123.534V127.44H123.563ZM130.099 127.44V123.893C130.099 122.875 129.569 122.373 128.689 122.373C127.845 122.373 127.286 122.886 127.286 123.893V127.44H126.447V121.693H127.287V122.31C127.687 121.849 128.252 121.631 128.881 121.631C129.501 121.631 130.011 121.803 130.351 122.161C130.756 122.551 130.951 123.105 130.951 123.745V127.44H130.099ZM134.402 128.828C134.286 129.137 134.161 129.371 133.992 129.519C133.681 129.813 133.271 129.93 132.866 129.93H132.514V129.16H132.769C133.347 129.16 133.529 128.977 133.706 128.451L134.124 127.311L132.063 121.693H132.975L134.544 126.32L136.093 121.693H137L134.402 128.828ZM123.563 124.79H121.96C121.108 124.79 120.671 125.138 120.671 125.809C120.671 126.472 121.08 126.785 122.004 126.785C122.487 126.785 122.919 126.746 123.27 126.391C123.474 126.215 123.563 125.876 123.563 125.408V124.79ZM116.263 122.373C115.012 122.373 114.817 123.429 114.817 124.568C114.817 125.692 115.013 126.765 116.263 126.765C117.514 126.765 117.694 125.692 117.694 124.568C117.694 123.429 117.513 122.373 116.263 122.373ZM100.676 122.789C100.389 122.519 100.011 122.37 99.6179 122.373C99.2128 122.373 98.8508 122.532 98.5907 122.789C98.1636 123.199 98.1196 123.925 98.1196 124.568C98.1196 125.208 98.1636 125.915 98.5897 126.344C98.8498 126.616 99.2128 126.765 99.6179 126.765C100.028 126.765 100.41 126.617 100.676 126.344C101.073 125.915 101.112 125.208 101.112 124.568C101.112 123.924 101.073 123.2 100.676 122.789ZM82.6951 120.39L81.1259 124.79H84.2104L82.6951 120.39ZM55.0936 120.39L53.5303 124.79H56.6248L55.0936 120.39ZM37.1307 120.39L35.5834 124.79H38.6619L37.1317 120.39H37.1307ZM30.0315 119.91H27.8831V122.81H30.0315C30.9486 122.81 31.6598 122.337 31.6598 121.331C31.6598 120.362 30.9486 119.91 30.0315 119.91ZM30.1335 123.597H27.8831V126.66H30.1335C31.1537 126.66 31.7918 126.051 31.7918 125.123C31.7918 124.179 31.1537 123.597 30.1335 123.597Z" fill="#051153"/>
<path fill-rule="evenodd" clip-rule="evenodd" d="M47.4273 110.35C69.905 110.35 102.555 76.786 117.906 76.786C125.967 76.786 132.855 82.7794 132.855 90.175C132.855 97.5707 125.966 103.565 117.905 103.565C110.444 103.565 97.5175 95.1182 92.8718 91.6346L83.8893 96.9792L90.1263 100.688V100.682C97.9486 106.089 109.574 110.351 116.571 110.351C127.853 110.351 136.997 101.318 136.997 90.176C136.998 79.0333 127.853 70 116.571 70C93.2608 70 63.0249 103.564 46.0921 103.564C38.0308 103.564 31.1407 97.5687 31.1407 90.174C31.1407 82.7794 38.0298 76.785 46.0921 76.785C52.6392 76.785 66.2084 85.2832 71.0692 88.7476L80.1007 83.3759L73.8697 79.663V79.667C66.0474 74.2621 54.4245 70.001 47.4273 70.001C36.1465 70.001 27 79.0343 27 90.175C27 101.317 36.1465 110.35 47.4273 110.35Z" fill="#282781"/>
<path fill-rule="evenodd" clip-rule="evenodd" d="M117.685 78.643C110.694 78.643 94.474 89.8139 94.474 90.2575C94.474 90.7001 109.695 101.871 117.685 101.871C124.676 101.871 130.652 96.6724 130.652 90.2575C130.652 83.8437 124.677 78.643 117.685 78.643Z" fill="#00AEEF"/>
<path fill-rule="evenodd" clip-rule="evenodd" d="M126.476 87.5878C125.683 90.9506 121.529 89.0293 117.49 87.5576C112.353 85.6865 104.166 86.3354 104.195 86.0738C104.225 85.8133 115.224 80.6176 119.137 80.8208C123.052 81.023 126.904 83.8135 126.476 87.5878Z" fill="white"/>
<path fill-rule="evenodd" clip-rule="evenodd" d="M46.3132 78.643C39.321 78.643 33.347 83.8437 33.347 90.2575C33.347 96.6724 39.321 101.871 46.3132 101.871C54.3025 101.871 69.523 90.7001 69.523 90.2575C69.523 89.8139 53.3053 78.643 46.3132 78.643Z" fill="#00AEEF"/>
<path fill-rule="evenodd" clip-rule="evenodd" d="M46.5082 87.5576C42.4675 89.0293 38.3169 90.9506 37.5217 87.5878C37.0947 83.8135 40.9473 81.023 44.8609 80.8208C48.7736 80.6176 59.7754 85.8133 59.8054 86.0748C59.8354 86.3364 51.646 85.6886 46.5092 87.5586" fill="white"/>
</g>
<rect width="164" height="1" transform="translate(0 159)" fill="#808285"/>
<defs>
<clipPath id="clip0_4653_529">
<rect width="110" height="60" fill="white" transform="translate(27 70)"/>
</clipPath>
</defs>
</svg>
