<svg width="56" height="56" viewBox="0 0 56 56" fill="none" xmlns="http://www.w3.org/2000/svg">
<path d="M25.8265 50.7324C21.8622 50.7324 18.0137 50.7292 14.1652 50.7324C12.493 50.7324 11.2843 49.9095 10.4294 48.562C8.23121 45.1071 6.07053 41.627 3.64996 37.7638C11.134 40.5215 18.521 38.9228 25.8297 39.5572C25.8265 43.3074 25.8265 47.0042 25.8265 50.7324Z" fill="#22478B"/>
<path d="M36.3543 51.2977C36.2917 52.152 36.2478 52.7582 36.1727 53.8041C34.5193 51.0025 33.0475 48.5306 31.6165 46.0399C31.4975 45.8327 31.5507 45.4243 31.676 45.1919C33.1039 42.4971 34.56 39.8211 36.1508 36.8687C36.2416 37.7261 36.2979 38.2601 36.3449 38.7155C41.6025 38.7155 46.785 38.7155 52.0864 38.7155C51.5697 39.642 50.9748 40.6911 50.3923 41.7495C48.9613 44.3439 47.524 46.9382 46.1086 49.542C45.4792 50.6978 44.5586 51.3134 43.2183 51.304C40.9794 51.2883 38.7435 51.2977 36.3543 51.2977Z" fill="#22478B"/>
<path d="M44.1859 9.62492C44.9124 9.29513 45.4698 9.04386 46.4405 8.60414C44.7809 11.5628 43.3217 14.198 41.8061 16.8018C41.6745 17.031 41.1704 17.1378 40.8385 17.141C37.992 17.1661 35.1424 17.1567 31.9296 17.1567C32.6373 16.6855 33.0475 16.4154 33.7051 15.9757C30.843 11.4435 28.8014 6.44637 24.9497 2.20936C26.4027 2.20936 27.6772 2.20936 28.9517 2.20936C31.9735 2.20936 34.9984 2.2345 38.0202 2.19681C39.1193 2.1811 39.8239 2.52031 40.3969 3.5348C41.5618 5.60462 42.8989 7.57708 44.1859 9.62492Z" fill="#22478B"/>
<path d="M19.642 20.8064C16.2444 18.9187 12.9941 17.1096 9.62781 15.2376C11.6851 11.5534 13.5358 7.95398 15.662 4.52417C17.1463 2.1277 19.6733 1.6503 22.2505 2.86267C24.4299 3.88973 25.8641 5.62347 26.8349 7.76239C26.9726 8.06705 26.9444 8.57901 26.7754 8.86797C24.4581 12.794 22.1002 16.7044 19.642 20.8064Z" fill="#22478B"/>
<path d="M39.0786 24.7355C42.3948 22.6594 45.5919 20.6556 48.9237 18.5701C50.9967 22.1098 53.1229 25.4894 54.9893 29.0071C56.3952 31.658 55.1333 34.9056 52.4027 36.2719C51.67 36.6394 50.8527 36.8718 50.0479 37.0477C47.0668 37.6978 46.5783 37.4591 45.069 34.8868C43.1025 31.5386 41.1234 28.1968 39.0786 24.7355Z" fill="#22478B"/>
<path d="M16.7674 30.5964C16.0096 30.2823 15.5555 30.097 14.9762 29.8551C13.6736 32.0914 12.3584 34.2617 11.1434 36.4823C10.6298 37.4246 10.0286 37.6256 9.00152 37.4215C6.46509 36.9221 4.032 36.2499 2.07801 34.4439C0.114619 32.6285 -0.0419526 31.391 1.33273 29.1233C2.37862 27.3958 3.40257 25.6558 4.51109 23.7964C3.85036 23.341 3.27733 22.939 2.39115 22.3265C5.58517 22.3265 8.46292 22.3108 11.3407 22.3516C11.6319 22.3548 12.0296 22.6218 12.1862 22.8824C13.683 25.3543 15.1422 27.8513 16.7674 30.5964Z" fill="#22478B"/>
</svg>
