<svg width="56" height="56" viewBox="0 0 56 56" fill="none" xmlns="http://www.w3.org/2000/svg">
<path d="M51.3736 1.15165C51.1663 1.04651 50.9611 0.881571 50.825 0.689831C50.5364 0.283671 49.2706 -0.153414 48.8337 0.0527585C48.7605 0.0857461 48.6996 0.15378 48.6468 0.217694C48.3156 0.621792 47.9945 1.03414 47.6592 1.43411C47.5028 1.62173 47.2407 1.7578 47.1696 1.9681C47.0273 2.38456 46.7368 2.5763 46.3893 2.77217C46.182 2.88969 45.9139 3.11648 45.8956 3.31647C45.8448 3.83808 45.5867 4.39062 45.8285 4.88956C46.1861 5.62766 45.8001 6.3307 45.8387 7.05025C45.8793 7.79247 45.8143 8.53882 45.2453 9.11816C45.2189 9.14496 45.1986 9.19444 45.1986 9.23362C45.1824 9.7408 45.1153 10.1635 44.5525 10.4274C44.2091 10.5882 43.9876 11.017 43.6767 11.3634C43.7214 11.4046 43.8271 11.4726 43.8941 11.5695C43.949 11.6479 44.014 11.786 43.9815 11.8479C43.7824 12.2231 43.5548 12.586 43.3374 12.953C43.3008 13.0128 43.2602 13.0767 43.2459 13.1426C43.1789 13.4622 43.12 13.7838 43.061 14.1055C42.8457 15.2786 42.293 16.2662 41.5107 17.1465C41.2689 17.4187 41.082 17.7712 40.9662 18.1217C40.7244 18.8536 40.7914 19.6721 40.2794 20.3381C40.0457 20.6411 39.9482 21.0535 39.7775 21.4102C39.7307 21.5071 39.6576 21.6452 39.5763 21.6617C39.0785 21.7668 39.1577 22.1483 39.0927 22.5132C39.0094 22.9833 38.8083 23.4327 38.6538 23.8904C38.5888 24.0842 38.5136 24.276 38.4405 24.4677C38.3369 24.7419 38.2739 25.0429 38.1133 25.278C37.9203 25.5625 37.644 25.7893 37.4042 26.0408C37.3737 26.0697 37.3433 26.1006 37.3128 26.1295C36.7296 26.1954 36.5671 26.7789 36.1749 27.0799C35.8376 27.3129 35.5125 27.5644 35.165 27.7788C33.9865 28.5046 33.4521 29.589 33.3932 30.9559C33.3892 31.059 33.3343 31.191 33.2591 31.257C32.9808 31.5044 32.7146 31.7909 32.3895 31.9518C31.343 32.4754 30.3636 33.1001 29.5285 33.9166C29.1201 34.3166 28.8763 34.8794 28.3683 35.2052C28.2586 35.2753 28.2464 35.4856 28.1529 35.601C27.8705 35.9474 27.5718 36.2814 27.2792 36.6195C27.2975 36.6463 27.3178 36.6731 27.3361 36.6999C27.5982 36.568 27.8624 36.4339 28.1245 36.302C28.1997 36.401 28.2383 36.4814 28.3013 36.5329C28.6223 36.7968 28.5715 36.9906 28.2444 37.2236C27.9152 37.4566 27.6856 37.7782 27.5738 38.1988C27.4844 38.541 27.3016 38.84 26.9236 38.9822C26.7387 39.0523 26.5924 39.2379 26.438 39.3801C26.2978 39.51 26.1698 39.6544 26.0113 39.8193C26.1698 40.0585 26.0743 40.2749 25.8162 40.4873C25.3855 40.844 25.0238 41.3079 24.5544 41.5944C23.7965 42.0563 22.9634 42.3903 22.1832 42.8191C21.4375 43.2294 20.8462 43.8046 20.5516 44.6458C20.4926 44.8149 20.3707 44.9612 20.2671 45.1117C19.9847 45.5261 19.6758 45.9241 19.4198 46.3529C19.1394 46.8209 18.9789 47.3838 18.6334 47.7879C18.1986 48.2971 17.6581 48.728 17.1115 49.1136C16.7275 49.3836 16.2419 49.4888 16.0915 50.0434C15.994 50.4042 15.6994 50.5732 15.3255 50.6186C15.0634 50.6495 14.7586 50.6619 14.5574 50.8062C14.0332 51.1815 13.5029 51.2 12.9095 51.0598C12.3528 50.9258 12.2248 51.0495 11.8895 51.532C11.7026 51.7979 11.5279 52.1463 11.0971 52.1402C10.325 52.1278 9.5447 52.0762 8.77867 52.1525C7.972 52.2309 7.17753 52.4453 6.37695 52.5876C5.94009 52.6659 5.49918 52.7195 5.06232 52.7917C4.88351 52.8205 4.68641 52.837 4.53605 52.9236C4.42226 52.9896 4.31254 53.1566 4.30035 53.2885C4.29019 53.3854 4.42429 53.5174 4.52385 53.5978C4.67422 53.7215 4.84491 53.8246 5.01559 53.9215C5.26754 54.0617 5.52356 54.1895 5.78364 54.3153C5.89743 54.3689 6.02544 54.3916 6.13719 54.4472C6.6533 54.7029 7.16534 54.9688 7.68145 55.2224C8.34385 55.5482 9.03876 55.7338 9.78244 55.742C10.1969 55.7461 10.6115 55.7832 11.0239 55.8142C11.1763 55.8265 11.3247 55.8636 11.4771 55.8884C11.9302 55.9626 12.3934 56.1461 12.808 55.777C13.2956 55.3441 13.8442 55.1255 14.5046 55.0163C16.0956 54.7544 17.6114 54.2246 19.0378 53.439C19.5275 53.171 20.068 52.8618 20.5942 52.8391C21.2119 52.8144 21.2851 52.3917 21.5228 52.0412C21.8621 51.5402 22.1893 51.0248 22.5753 50.5609C22.8415 50.2413 23.4186 50.0723 22.9025 49.5156C22.8964 49.5094 22.8984 49.4867 22.9045 49.4744C23.0914 49.0826 23.1951 48.594 23.4897 48.326C23.8676 47.9817 23.8737 47.6951 23.7091 47.2889C23.4511 46.6477 23.3657 46.023 23.957 45.4952C24.0708 45.3942 24.1399 45.2293 24.2659 45.1612C24.5544 45.0045 24.8572 44.8623 25.1681 44.7633C25.4139 44.685 25.6862 44.6437 25.9422 44.654C26.3892 44.6705 26.7062 44.9551 27.0171 45.2602C27.4235 45.6622 27.8095 45.5859 28.0595 45.0685C28.1631 44.854 28.2342 44.6149 28.2748 44.3778C28.3561 43.8974 28.5756 43.5036 28.988 43.2665C29.7805 42.8109 30.5953 42.3944 31.3938 41.9449C31.5909 41.8336 31.7718 41.679 31.9343 41.5202C32.4728 40.9945 33.0397 40.5553 33.8504 40.6089C34.1979 40.6337 34.6002 40.7161 34.8887 40.5801C35.6669 40.211 36.502 39.8667 36.817 38.9163C36.8495 38.8173 36.9856 38.741 37.0893 38.6833C37.6602 38.3617 38.3226 38.1534 38.5522 37.4194C38.5705 37.3597 38.6559 37.3267 38.7006 37.271C38.9038 37.0195 39.113 36.7741 39.298 36.5082C39.4341 36.3123 39.4422 36.1474 39.1964 35.9742C38.9139 35.7763 38.9485 35.5227 39.1577 35.3474C39.686 34.9124 40.2042 34.4588 40.7101 33.997C41.0027 33.731 41.2506 33.4156 41.5452 33.1496C41.7362 32.9764 41.9699 32.8115 42.1365 33.2177C42.167 33.2919 42.3621 33.362 42.4474 33.3311C42.6811 33.2486 42.9107 33.1311 43.1179 32.9929C43.3983 32.8032 43.632 32.5311 43.9287 32.3827C44.2314 32.2321 44.3452 31.995 44.3737 31.7126C44.461 30.8858 44.2578 30.1251 43.8088 29.4323C43.6198 29.1416 43.3821 29.1045 43.0793 29.2509C42.866 29.354 42.6242 29.3973 42.4108 29.4962C42.1121 29.6364 41.8195 29.7931 41.5391 29.9643C41.3847 30.0591 41.2689 30.222 41.1104 30.3086C41.019 30.358 40.8788 30.3168 40.6776 30.3168C40.9966 29.9313 41.2486 29.6694 41.4497 29.3725C41.7017 29.0014 41.9577 28.6221 42.1304 28.2097C42.4271 27.4964 42.7014 26.783 43.2663 26.2346C43.3516 26.1439 43.4369 26.0532 43.5223 25.9604C43.7255 25.9027 43.9632 25.8944 44.1237 25.7769C44.6094 25.4223 44.7455 25.7501 44.8816 26.1253C44.778 26.4366 44.6744 26.748 44.5687 27.0634C44.6988 27.1376 44.8308 27.2098 45.0056 27.3088C44.774 27.7644 44.5525 28.1994 44.2904 28.7169C44.6602 28.7788 45.0523 28.9334 45.4059 28.8715C45.6334 28.8303 45.8061 28.4695 46.0053 28.251C45.9626 28.2386 45.9179 28.2242 45.8753 28.2118C45.8874 27.9768 45.8549 27.7293 45.922 27.5129C46.0175 27.2077 45.9606 26.9913 45.7127 26.8119C45.7127 26.7583 45.7107 26.7067 45.7107 26.6531C45.7289 26.6304 45.735 26.6036 45.7269 26.5748C45.8671 26.381 46.0865 26.2057 46.1312 25.9913C46.2796 25.2903 46.7754 24.8718 47.2468 24.4223C47.704 23.9894 48.1185 23.5296 48.1997 22.8575C48.2201 22.6926 48.2587 22.4843 48.3663 22.3854C48.7321 22.0555 48.6407 21.7112 48.4781 21.338C48.3196 20.9751 48.1408 20.6185 48.0311 20.2412C47.9823 20.0742 48.09 19.8659 48.1124 19.6742C48.1347 19.4804 48.1571 19.2845 48.1489 19.0907C48.1408 18.9155 48.0006 18.666 48.0697 18.5856C48.3156 18.299 48.2668 18.0227 48.1977 17.7032C48.155 17.5135 48.1774 17.3032 48.1957 17.1053C48.2262 16.794 48.3521 16.4723 48.3013 16.1796C48.2282 15.7569 48.405 15.4147 48.6711 15.2477C49.2848 14.8642 49.3925 14.3879 49.2259 13.7302C49.1791 13.5447 49.2604 13.2169 49.4006 13.1117C49.6221 12.9468 49.6241 12.819 49.5185 12.621C49.3965 12.3901 49.4331 12.2149 49.6119 12.0108C49.7277 11.8788 49.7724 11.6603 49.7928 11.4726C49.8293 11.1242 49.7318 10.751 50.0386 10.4727C50.315 10.2212 50.382 9.95934 50.1199 9.63565C50.0467 9.547 50.0833 9.3635 50.0793 9.2233C50.0772 9.12847 50.1382 9.0027 50.0955 8.94085C49.7765 8.46459 50.0264 8.11616 50.3231 7.77391C50.5222 7.54506 50.5994 7.28529 50.4145 7.03582C50.2499 6.81315 50.2987 6.63997 50.384 6.40905C50.5283 6.01732 50.6502 5.61117 50.7193 5.19882C50.7762 4.85245 50.8026 4.5267 51.3228 4.41536C50.6787 4.21331 50.8961 3.82983 50.9794 3.5082C50.8392 3.41337 50.7234 3.33502 50.6522 3.2876C50.9774 2.75361 51.2618 2.26293 51.5686 1.78461C51.784 1.45061 51.7434 1.33927 51.3736 1.15165ZM35.1468 32.1002C35.1143 32.4507 35.0695 32.8032 35.0553 33.1537C35.037 33.6217 34.8785 33.8094 34.4315 33.8857C34.271 33.9125 34.0739 33.9454 33.9683 34.0527C33.4278 34.599 32.9198 35.1763 32.3854 35.7288C32.2716 35.8464 32.0969 35.935 31.9384 35.968C31.3593 36.0835 30.77 36.1515 30.193 36.2773C29.9715 36.3247 29.7825 36.5082 29.5631 36.5824C29.3416 36.6587 29.0632 36.7741 28.8803 36.6978C28.6426 36.5968 28.732 36.337 28.8092 36.0814C28.9616 35.566 29.0409 35.4422 29.5163 35.3453C29.687 35.3103 29.8536 35.2113 29.9979 35.1083C30.197 34.9639 30.3494 34.7124 30.6522 34.8918C30.6806 34.9083 30.7396 34.8938 30.77 34.8753C31.1642 34.6279 31.5564 34.3743 31.9526 34.1289C32.0704 34.0568 32.2005 34.0032 32.3265 33.9434C32.4281 33.896 32.5764 33.8877 32.6313 33.8094C32.9462 33.3537 33.4339 33.1764 33.8971 32.9599C34.2547 32.7909 34.401 32.4651 34.5697 32.1353C34.6814 31.9167 34.8846 31.7476 35.0472 31.5559C35.098 31.5889 35.1488 31.6198 35.1996 31.6528C35.1813 31.8013 35.161 31.9518 35.1468 32.1002Z" fill="#22478B"/>
</svg>
